<?xml version="1.0" standalone="no"?>
<!DOCTYPE svg PUBLIC "-//W3C//DTD SVG 20010904//EN"
 "http://www.w3.org/TR/2001/REC-SVG-20010904/DTD/svg10.dtd">
<svg version="1.0" xmlns="http://www.w3.org/2000/svg"
 width="512.000000pt" height="512.000000pt" viewBox="0 0 512.000000 512.000000"
 preserveAspectRatio="xMidYMid meet">
<metadata>
Created by potrace 1.11, written by Peter Selinger 2001-2013
</metadata>
<g transform="translate(0.000000,512.000000) scale(0.100000,-0.100000)"
fill="#000000" stroke="none">
<path d="M0 2935 l0 -1951 898 1 897 0 -1 -215 c-1 -118 -2 -220 -3 -226 -1
-7 -73 -10 -217 -10 -119 1 -219 -1 -223 -4 -5 -3 -8 -70 -7 -150 l1 -145
1215 0 1215 0 2 148 c1 107 -2 147 -10 148 -7 0 -108 2 -226 2 l-215 2 1 205
c1 113 2 214 2 225 1 20 8 20 896 20 l895 0 0 1950 0 1951 -2560 0 -2560 0 0
-1951z"/>
</g>
</svg>
